<mxfile host="app.diagrams.net" modified="2023-07-07T12:56:03.912Z" agent="Mozilla/5.0 (X11; Ubuntu; Linux x86_64; rv:109.0) Gecko/20100101 Firefox/115.0" etag="_UqDYJsAxsd668D2_MnV" version="21.6.1" type="device">
  <diagram id="C5RBs43oDa-KdzZeNtuy" name="Page-1">
    <mxGraphModel dx="1052" dy="634" grid="1" gridSize="10" guides="1" tooltips="1" connect="1" arrows="1" fold="1" page="1" pageScale="1" pageWidth="827" pageHeight="1169" math="0" shadow="0">
      <root>
        <mxCell id="WIyWlLk6GJQsqaUBKTNV-0" />
        <mxCell id="WIyWlLk6GJQsqaUBKTNV-1" parent="WIyWlLk6GJQsqaUBKTNV-0" />
        <mxCell id="WIyWlLk6GJQsqaUBKTNV-12" value="&lt;div align=&quot;center&quot;&gt;&lt;blockquote&gt;&lt;p style=&quot;line-height: 110%; font-size: 15px;&quot;&gt;&lt;b&gt;Docker Environment&lt;/b&gt;&lt;/p&gt;&lt;/blockquote&gt;&lt;/div&gt;&lt;p style=&quot;line-height: 110%; font-size: 14px;&quot; align=&quot;center&quot;&gt;The entire system is prepared&amp;nbsp;&lt;/p&gt;&lt;p style=&quot;line-height: 110%; font-size: 14px;&quot; align=&quot;center&quot;&gt;to be compatible with the&amp;nbsp;&lt;/p&gt;&lt;p style=&quot;line-height: 110%; font-size: 14px;&quot; align=&quot;center&quot;&gt;Docker environment.&lt;/p&gt;" style="rounded=1;whiteSpace=wrap;html=1;fontSize=12;glass=0;strokeWidth=1;shadow=0;fillColor=#f5f5f5;gradientColor=#b3b3b3;strokeColor=#666666;align=center;" parent="WIyWlLk6GJQsqaUBKTNV-1" vertex="1">
          <mxGeometry x="20" y="60" width="670" height="460" as="geometry" />
        </mxCell>
        <mxCell id="1qMjveVbKIe51F8GL5-L-19" style="edgeStyle=orthogonalEdgeStyle;rounded=0;orthogonalLoop=1;jettySize=auto;html=1;exitX=0.5;exitY=1;exitDx=0;exitDy=0;entryX=0.5;entryY=0;entryDx=0;entryDy=0;" edge="1" parent="WIyWlLk6GJQsqaUBKTNV-1" source="WIyWlLk6GJQsqaUBKTNV-3" target="1qMjveVbKIe51F8GL5-L-13">
          <mxGeometry relative="1" as="geometry" />
        </mxCell>
        <mxCell id="WIyWlLk6GJQsqaUBKTNV-3" value="&lt;div&gt;&lt;b&gt;Fetch data from Interpol&lt;/b&gt;&lt;/div&gt;&lt;div&gt;The computer program retrieves the list of wanted individuals from Interpol&#39;s website.&lt;/div&gt;" style="rounded=1;whiteSpace=wrap;html=1;fontSize=12;glass=0;strokeWidth=1;shadow=0;fillColor=#f8cecc;gradientColor=#ea6b66;strokeColor=#b85450;" parent="WIyWlLk6GJQsqaUBKTNV-1" vertex="1">
          <mxGeometry x="60" y="90" width="150" height="110" as="geometry" />
        </mxCell>
        <mxCell id="1qMjveVbKIe51F8GL5-L-6" style="edgeStyle=orthogonalEdgeStyle;rounded=0;orthogonalLoop=1;jettySize=auto;html=1;exitX=1;exitY=0.5;exitDx=0;exitDy=0;entryX=0;entryY=0.5;entryDx=0;entryDy=0;" edge="1" parent="WIyWlLk6GJQsqaUBKTNV-1" target="1qMjveVbKIe51F8GL5-L-0">
          <mxGeometry relative="1" as="geometry">
            <mxPoint x="160" y="330" as="sourcePoint" />
          </mxGeometry>
        </mxCell>
        <mxCell id="1qMjveVbKIe51F8GL5-L-9" style="edgeStyle=orthogonalEdgeStyle;rounded=0;orthogonalLoop=1;jettySize=auto;html=1;exitX=1;exitY=0.5;exitDx=0;exitDy=0;entryX=0.5;entryY=1;entryDx=0;entryDy=0;" edge="1" parent="WIyWlLk6GJQsqaUBKTNV-1" target="1qMjveVbKIe51F8GL5-L-7">
          <mxGeometry relative="1" as="geometry">
            <mxPoint x="320" y="330" as="sourcePoint" />
          </mxGeometry>
        </mxCell>
        <mxCell id="1qMjveVbKIe51F8GL5-L-20" style="edgeStyle=orthogonalEdgeStyle;rounded=0;orthogonalLoop=1;jettySize=auto;html=1;exitX=0.5;exitY=1;exitDx=0;exitDy=0;entryX=0;entryY=0.5;entryDx=0;entryDy=0;" edge="1" parent="WIyWlLk6GJQsqaUBKTNV-1" source="1qMjveVbKIe51F8GL5-L-13" target="1qMjveVbKIe51F8GL5-L-14">
          <mxGeometry relative="1" as="geometry" />
        </mxCell>
        <mxCell id="1qMjveVbKIe51F8GL5-L-13" value="&lt;div&gt;&lt;b&gt;Write to Queue&lt;br&gt;&lt;/b&gt;&lt;/div&gt;&lt;div&gt;The program writes the fetched data to a queue.&lt;/div&gt;" style="rounded=1;whiteSpace=wrap;html=1;fontSize=12;glass=0;strokeWidth=1;shadow=0;fillColor=#e6d0de;gradientColor=#d5739d;strokeColor=#996185;" vertex="1" parent="WIyWlLk6GJQsqaUBKTNV-1">
          <mxGeometry x="60" y="235" width="150" height="110" as="geometry" />
        </mxCell>
        <mxCell id="1qMjveVbKIe51F8GL5-L-21" style="edgeStyle=orthogonalEdgeStyle;rounded=0;orthogonalLoop=1;jettySize=auto;html=1;exitX=1;exitY=0.5;exitDx=0;exitDy=0;entryX=0;entryY=0.5;entryDx=0;entryDy=0;" edge="1" parent="WIyWlLk6GJQsqaUBKTNV-1" source="1qMjveVbKIe51F8GL5-L-14" target="1qMjveVbKIe51F8GL5-L-15">
          <mxGeometry relative="1" as="geometry" />
        </mxCell>
        <mxCell id="1qMjveVbKIe51F8GL5-L-14" value="&lt;div&gt;&lt;b&gt;Read from Queue&lt;/b&gt;&lt;/div&gt;&lt;div&gt;Another program reads the data from the queue.&lt;/div&gt;" style="rounded=1;whiteSpace=wrap;html=1;fontSize=12;glass=0;strokeWidth=1;shadow=0;fillColor=#e6d0de;gradientColor=#d5739d;strokeColor=#996185;" vertex="1" parent="WIyWlLk6GJQsqaUBKTNV-1">
          <mxGeometry x="170" y="380" width="150" height="110" as="geometry" />
        </mxCell>
        <mxCell id="1qMjveVbKIe51F8GL5-L-22" style="edgeStyle=orthogonalEdgeStyle;rounded=0;orthogonalLoop=1;jettySize=auto;html=1;exitX=1;exitY=0.5;exitDx=0;exitDy=0;entryX=0.5;entryY=1;entryDx=0;entryDy=0;" edge="1" parent="WIyWlLk6GJQsqaUBKTNV-1" source="1qMjveVbKIe51F8GL5-L-15" target="1qMjveVbKIe51F8GL5-L-16">
          <mxGeometry relative="1" as="geometry" />
        </mxCell>
        <mxCell id="1qMjveVbKIe51F8GL5-L-15" value="&lt;div&gt;&lt;b&gt;Store in Database&lt;br&gt;&lt;/b&gt;&lt;/div&gt;&lt;div&gt;The read data is stored in a database.&lt;/div&gt;" style="rounded=1;whiteSpace=wrap;html=1;fontSize=12;glass=0;strokeWidth=1;shadow=0;fillColor=#dae8fc;gradientColor=#7ea6e0;strokeColor=#6c8ebf;" vertex="1" parent="WIyWlLk6GJQsqaUBKTNV-1">
          <mxGeometry x="380" y="380" width="150" height="110" as="geometry" />
        </mxCell>
        <mxCell id="1qMjveVbKIe51F8GL5-L-23" style="edgeStyle=orthogonalEdgeStyle;rounded=0;orthogonalLoop=1;jettySize=auto;html=1;exitX=0.5;exitY=0;exitDx=0;exitDy=0;entryX=0.5;entryY=1;entryDx=0;entryDy=0;" edge="1" parent="WIyWlLk6GJQsqaUBKTNV-1" source="1qMjveVbKIe51F8GL5-L-16" target="1qMjveVbKIe51F8GL5-L-17">
          <mxGeometry relative="1" as="geometry" />
        </mxCell>
        <mxCell id="1qMjveVbKIe51F8GL5-L-16" value="&lt;div&gt;&lt;b&gt;Share via Web Server&lt;/b&gt;&lt;/div&gt;&lt;div&gt;The information from the database is shared through a web server.&lt;/div&gt;" style="rounded=1;whiteSpace=wrap;html=1;fontSize=12;glass=0;strokeWidth=1;shadow=0;fillColor=#d5e8d4;gradientColor=#97d077;strokeColor=#82b366;" vertex="1" parent="WIyWlLk6GJQsqaUBKTNV-1">
          <mxGeometry x="500" y="240" width="150" height="110" as="geometry" />
        </mxCell>
        <mxCell id="1qMjveVbKIe51F8GL5-L-17" value="&lt;div&gt;&lt;b&gt;User Interface&lt;/b&gt;&lt;/div&gt;&lt;div&gt;Users interact with the system through a visual interface.&lt;/div&gt;" style="rounded=1;whiteSpace=wrap;html=1;fontSize=12;glass=0;strokeWidth=1;shadow=0;fillColor=#fff2cc;gradientColor=#ffd966;strokeColor=#d6b656;" vertex="1" parent="WIyWlLk6GJQsqaUBKTNV-1">
          <mxGeometry x="500" y="90" width="150" height="110" as="geometry" />
        </mxCell>
      </root>
    </mxGraphModel>
  </diagram>
</mxfile>
